<svg xmlns="http://www.w3.org/2000/svg" width="250" height="250">
 

 <g>
  <title>background</title>
  <rect fill="none" id="canvas_background" height="402" width="582" y="-1" x="-1"/>
 </g>
 <g>
  <title>Layer 1</title>
  <g id="svg_1">
   <polygon id="svg_2" points="125,30 125,30 125,30 31.9,63.2 46.1,186.3 125,230 125,230 125,230 203.9,186.3 218.1,63.2  " class="st0" style="&#10;    fill: #646464;&#10;"/>
   <polygon id="svg_3" points="125,30 125,52.2 125,52.1 125,153.4 125,153.4 125,230 125,230 203.9,186.3 218.1,63.2 125,30  " class="st1" style="&#10;    fill: #3a3a3a;&#10;"/>
   <g stroke="null" id="svg_34">
    <path stroke="null" id="svg_9" fill="#ECEFF1" d="m144.972762,88.884789l0,-18.680059c0,-1.06037 -0.422554,-2.072905 -1.164016,-2.822339s-1.761969,-1.164016 -2.822339,-1.164016l-55.80897,0c-2.200468,0 -3.986355,1.785887 -3.986355,3.986355l0,18.680059c0,9.583197 3.731228,18.59236 10.508032,25.369163l7.773392,7.773392l-7.773392,7.773392c-6.776803,6.784776 -10.508032,15.785966 -10.508032,25.369163l0,18.688032c0,1.06037 0.422554,2.072905 1.164016,2.822339s1.761969,1.164016 2.822339,1.164016l55.80897,-0.007973c2.200468,0 3.986355,-1.785887 3.986355,-3.986355l0,-18.688032c0,-9.583197 -3.731228,-18.59236 -10.508032,-25.369163l-7.773392,-7.765419l7.773392,-7.781365c6.776803,-6.768831 10.508032,-15.777993 10.508032,-25.36119z"/>
    <g stroke="null" transform="matrix(0.24914718549742756,0,0,0.24914718549742756,-992.1994180870754,-1109.7292904109497) " id="svg_10">
     <path stroke="null" id="svg_11" fill="#607D8B" d="m4292.258694,4751.891523c-8.832,0 -16,-7.136 -16,-16c0,-8.8 7.168,-16 16,-16l288,0c8.832,0 16,7.168 16,16s-7.168,16 -16,16l-288,0z"/>
     <path stroke="null" id="svg_12" fill="#607D8B" d="m4580.258694,5167.891523l-288,0c-8.8,0 -16,-7.2 -16,-16l0,0c0,-8.8 7.2,-16 16,-16l288,0c8.8,0 16,7.2 16,16l0,0c0,8.8 -7.2,16 -16,16z"/>
    </g>
    <g stroke="null" transform="matrix(0.24914718549742756,0,0,0.24914718549742756,-992.1994180870754,-1109.7292904109497) " id="svg_13">
     <path stroke="null" id="svg_14" fill="#B0BEC5" d="m4340.258694,4783.891523l0,26.976c0,29.92 11.648,58.016 32.8,79.2c0,0 63.2,49.6 63.2,53.824l0,0c0,-4.224 63.2,-53.856 63.2,-53.856c21.152,-21.152 32.8,-49.28 32.8,-79.168l0,-26.976l-192,0z"/>
     <path stroke="null" id="svg_15" fill="#B0BEC5" d="m4340.258694,5135.891523l0,-26.976c0,-29.92 11.648,-58.016 32.8,-79.2c0,0.032 63.2,-49.6 63.2,-53.824l0,0c0,4.224 63.2,53.856 63.2,53.856c21.152,21.152 32.8,49.28 32.8,79.2l0,26.944l-192,0z"/>
    </g>
    <path stroke="null" id="svg_16" fill="#FAFAFA" d="m148.959117,169.863604l-3.986355,0l0,-14.701677c0,-9.583197 -3.731228,-18.59236 -10.508032,-25.369163l-1.666296,-1.658324c-7.263139,7.829201 -11.743802,18.273451 -11.743802,29.770099c0,7.183412 1.769942,13.94427 4.839435,19.931775l15.09234,0l7.97271,0c2.192495,0 3.986355,-1.79386 3.986355,-3.986355s-1.79386,-3.986355 -3.986355,-3.986355z"/>
    <circle stroke="null" transform="matrix(0.24914718549742756,0,0,0.24914718549742756,-992.1994180870754,-1109.7292904109497) " id="svg_17" fill="#2196F3" r="144" cy="5087.891427" cx="4644.258584" style="&#10;    fill: #607d8b;&#10;"/>
    <path stroke="null" id="svg_18" fill="#FAFAFA" d="m176.863602,173.849959c-1.020507,0 -2.041014,-0.390663 -2.822339,-1.164016l-11.959065,-11.959065c-0.741462,-0.749435 -1.164016,-1.761969 -1.164016,-2.822339l0,-15.94542c0,-2.200468 1.785887,-3.986355 3.986355,-3.986355s3.986355,1.785887 3.986355,3.986355l0,14.295069l10.795049,10.795049c1.554678,1.554678 1.554678,4.082027 0,5.636706c-0.781326,0.773353 -1.801832,1.164016 -2.822339,1.164016z"/>
    <g stroke="null" transform="matrix(0.24914718549742756,0,0,0.24914718549742756,-992.1994180870754,-1109.7292904109497) " id="svg_19"/>
    <g stroke="null" transform="matrix(0.24914718549742756,0,0,0.24914718549742756,-992.1994180870754,-1109.7292904109497) " id="svg_20"/>
    <g stroke="null" transform="matrix(0.24914718549742756,0,0,0.24914718549742756,-992.1994180870754,-1109.7292904109497) " id="svg_21"/>
    <g stroke="null" transform="matrix(0.24914718549742756,0,0,0.24914718549742756,-992.1994180870754,-1109.7292904109497) " id="svg_22"/>
    <g stroke="null" transform="matrix(0.24914718549742756,0,0,0.24914718549742756,-992.1994180870754,-1109.7292904109497) " id="svg_23"/>
    <g stroke="null" transform="matrix(0.24914718549742756,0,0,0.24914718549742756,-992.1994180870754,-1109.7292904109497) " id="svg_24"/>
    <g stroke="null" transform="matrix(0.24914718549742756,0,0,0.24914718549742756,-992.1994180870754,-1109.7292904109497) " id="svg_25"/>
    <g stroke="null" transform="matrix(0.24914718549742756,0,0,0.24914718549742756,-992.1994180870754,-1109.7292904109497) " id="svg_26"/>
    <g stroke="null" transform="matrix(0.24914718549742756,0,0,0.24914718549742756,-992.1994180870754,-1109.7292904109497) " id="svg_27"/>
    <g stroke="null" transform="matrix(0.24914718549742756,0,0,0.24914718549742756,-992.1994180870754,-1109.7292904109497) " id="svg_28"/>
    <g stroke="null" transform="matrix(0.24914718549742756,0,0,0.24914718549742756,-992.1994180870754,-1109.7292904109497) " id="svg_29"/>
    <g stroke="null" transform="matrix(0.24914718549742756,0,0,0.24914718549742756,-992.1994180870754,-1109.7292904109497) " id="svg_30"/>
    <g stroke="null" transform="matrix(0.24914718549742756,0,0,0.24914718549742756,-992.1994180870754,-1109.7292904109497) " id="svg_31"/>
    <g stroke="null" transform="matrix(0.24914718549742756,0,0,0.24914718549742756,-992.1994180870754,-1109.7292904109497) " id="svg_32"/>
    <g stroke="null" transform="matrix(0.24914718549742756,0,0,0.24914718549742756,-992.1994180870754,-1109.7292904109497) " id="svg_33"/>
   </g>
  </g>
 </g>
</svg>
